<svg width="40" height="41" viewBox="0 0 40 41" fill="none" xmlns="http://www.w3.org/2000/svg">
<rect x="18.8147" width="2.37659" height="14.9333" rx="1.1883" fill="#008CFF"/>
<rect width="2.32033" height="8.83016" rx="1.16017" transform="matrix(0.658372 -0.752692 0.778981 0.627047 12.6356 3.5704)" fill="#008CFF"/>
<rect width="2.32033" height="8.83016" rx="1.16017" transform="matrix(0.658372 0.752692 -0.778981 0.627047 25.8121 1.82392)" fill="#008CFF"/>
<rect width="2.31215" height="15.3612" rx="1.15608" transform="matrix(0.589562 -0.807723 0.83011 0.557599 3.54419 9.35898)" fill="#008CFF"/>
<rect width="2.33161" height="8.78765" rx="1.16581" transform="matrix(-0.263812 -0.944499 0.98699 -0.253702 3.04871 16.2626)" fill="#008CFF"/>
<rect width="2.33161" height="8.78765" rx="1.16581" transform="matrix(1.01541 -0.0852224 0.0890564 0.976501 9.11511 4.90644)" fill="#008CFF"/>
<rect width="2.31215" height="15.3612" rx="1.15608" transform="matrix(0.589562 0.807723 -0.83011 0.557599 35.1102 7.47763)" fill="#008CFF"/>
<rect width="2.33161" height="8.78765" rx="1.16581" transform="matrix(1.01541 0.0852224 -0.0890564 0.976501 28.5173 4.66982)" fill="#008CFF"/>
<rect width="2.33161" height="8.78765" rx="1.16581" transform="matrix(-0.263812 0.944499 -0.98699 -0.253702 37.5664 14.0224)" fill="#008CFF"/>
<path d="M19.8857 20.587L8.17553 31.6063C7.7337 32.022 7.08088 31.9653 6.71742 31.4795V31.4795C6.35395 30.9938 6.41748 30.2629 6.85931 29.8472L18.5695 18.8279L19.8857 20.587Z" fill="black"/>
<path d="M33.2232 31.3415C32.8597 31.8273 32.2069 31.884 31.7651 31.4683L20.0548 20.449L21.3711 18.6899L33.0813 29.7092C33.5231 30.125 33.5866 30.8558 33.2232 31.3415V31.3415Z" fill="black"/>
<path d="M21.8142 19.1083C21.1797 18.2877 19.6533 17.6961 18.367 19.0129L18.3499 22.0091C19.8591 20.8068 19.7219 18.9747 21.8142 22.0664V19.1083Z" fill="black"/>
<path d="M20.1945 20.5737C20.1405 20.5137 19.9974 20.468 19.8841 20.576L19.8445 20.614L19.8247 20.633L19.7851 20.671L19.7059 20.728L19.488 20.766L19.9518 20.2676L21.1715 20.709L20.683 20.6414L20.3991 20.766L20.1945 20.5737Z" fill="black"/>
<path d="M17.9236 38.8062C24.1623 37.4954 15.9234 33.8443 14.7549 32.5524C14.3411 32.0948 14.5438 31.546 15.1312 30.9564C15.476 30.6104 15.7252 30.3848 16.2995 29.9479C16.8908 29.498 17.7297 29.128 18.9534 28.3709C19.6863 27.9175 20.6764 27.5539 21.3101 27.193C22.0627 26.851 23.4491 26.357 23.7263 26.205C24.2967 25.8923 24.3997 26.091 24.3997 26.091C24.7166 27.041 18.8247 28.9678 17.2961 31.1308C16.2221 32.6505 21.5543 34.262 23.4159 36.0999C25.7052 37.952 20.5252 40.1856 18.2096 39.9877C16.3634 39.8299 16.6561 39.0725 17.9236 38.8062Z" fill="black" stroke="black"/>
</svg>
